# xmcd CD database file
#
# Track frame offsets:
#	150
#	21911
#	53741
#	70977
#	95334
#	124505
#	146807
#	181008
#	226619
#	255525
#	278626
#	322302
#
# Disc length: 4795 seconds
#
# Revision: 2
# Processed by: cddbd v1.5.1PL2 Copyright (c) Steve Scherf et al.
# Submitted via: CDex 1.60beta1-cs1
#
DISCID=a212b90c
DTITLE=PE'Z - PE'Z COLOR VOL.1
DYEAR=2004
DGENRE=Jazz
TTITLE0=Akatsuki(P.M.S.SCREAMING MIX:SCAT FIREWORK)
TTITLE1=Hale no sola sita-LA YELLOW SAMBA-(FPM punky samba mix:FANTASTIC PLASTIC MACHINE)
TTITLE2=SPIRIT(SOULIVE Mix)
TTITLE3=海に降る雪-snow in the sea-(Dubbing by the Sea:MAD PROFESSOR)
TTITLE4=アンダルシア-Andalucia-(TM DAYDREAMIX:TOSHIO MATSUURA)
TTITLE5=T.K.O-それちょっと早くない?-(ってゆーか これ ちょっとヤバくない?ミックス:NAGATA of CAMERAMANS)
TTITLE6=Song For My Buffalo(Little Big Bee’s Over the Deep Emerald River)
TTITLE7=花咲クDON BLA GO!(Ashley Beedle’s Shibuya Space Samba Remix)
TTITLE8=across you(Jazztronik Mix)
TTITLE9=人が夢を見るといふ事-Black Skyline-(vocal remix:SUNAGA T EXPERIENCE)
TTITLE10=Let it go(zmh mix:HZM)
TTITLE11=CCCD DATA
EXTD=YEAR: 2004
EXTT0=
EXTT1=
EXTT2=
EXTT3=
EXTT4=
EXTT5=
EXTT6=
EXTT7=
EXTT8=
EXTT9=
EXTT10=
EXTT11=
PLAYORDER=
